<svg xmlns="http://www.w3.org/2000/svg" viewBox="0 0 800 600">
  <defs>
    <linearGradient id="night-sky" x1="0" x2="0" y1="0" y2="1">
      <stop offset="0%" stop-color="#0b1c3c" />
      <stop offset="100%" stop-color="#123456" />
    </linearGradient>
  </defs>
  <rect width="800" height="600" fill="url(#night-sky)" />
  <circle cx="650" cy="120" r="40" fill="#ffd27d" opacity="0.9" />
  <rect x="0" y="420" width="800" height="180" fill="#142b45" />
  <rect x="120" y="340" width="560" height="120" fill="#1b3557" />
  <rect x="140" y="360" width="80" height="60" fill="#253f63" />
  <rect x="240" y="360" width="120" height="80" fill="#2f517a" />
  <rect x="380" y="360" width="140" height="70" fill="#253f63" />
  <rect x="540" y="360" width="120" height="80" fill="#2f517a" />
  <path
    d="M50 420 Q120 320 200 420 T350 420 T500 420 T650 420 T800 420"
    fill="#0f203a"
  />
  <rect x="360" y="270" width="80" height="50" fill="#f1ba64" />
  <rect x="360" y="320" width="80" height="10" fill="#d8903c" />
  <rect x="300" y="280" width="50" height="90" fill="#203a5a" />
  <rect x="460" y="280" width="50" height="90" fill="#203a5a" />
  <text
    x="50%"
    y="65"
    text-anchor="middle"
    fill="#8fbcff"
    font-size="32"
    font-family="monospace"
  >
    Signal Relay
  </text>
</svg>
