<svg xmlns="http://www.w3.org/2000/svg" viewBox="0 0 410 404">
  <defs>
    <linearGradient id="a" x1="6.77%" x2="57.78%" y1="7.42%" y2="78.52%">
      <stop stop-color="#41D1FF" />
      <stop offset="1" stop-color="#BD34FE" />
    </linearGradient>
    <linearGradient id="b" x1="43.86%" x2="50.7%" y1="2.24%" y2="89.03%">
      <stop stop-color="#FFEA83" />
      <stop offset=".08" stop-color="#FFDD35" />
      <stop offset="1" stop-color="#FFA800" />
    </linearGradient>
  </defs>
  <path
    fill="url(#a)"
    d="M399.641 59.525 215.82 388.49c-5.933 10.558-21.334 10.593-27.302.062L10.581 59.56c-6.406-11.071 3.606-24.23 15.847-21.317l175.584 41.996a15.437 15.437 0 0 0 6.824-.01l174.872-41.982c12.218-2.933 22.266 10.175 15.89 21.257Z"
  />
  <path
    fill="url(#b)"
    d="M292.965.02 156.801 30.54a7.756 7.756 0 0 0-6.356 8.874l23.553 173.705c.612 4.512 5.195 7.177 9.32 5.49l52.006-21.853c3.686-1.548 7.885.612 8.773 4.53l15.503 68.138c1.012 4.448 6.319 6.105 9.661 3.023l23.596-21.813a7.746 7.746 0 0 0 2.377-6.933l-25.672-178.54c-.645-4.496 3.243-8.381 7.73-7.404l52.877 11.39c4.568.985 8.764-2.727 8.444-7.38l-3.219-46.798C339.562 5.402 316.824-5.05 292.965.02Z"
  />
</svg>
